<svg preserveAspectRatio="none" width="100%" height="100%" overflow="visible" style="display: block;" viewBox="0 0 36 36" fill="none" xmlns="http://www.w3.org/2000/svg">
<g id="icon/asset">
<foreignObject x="0.939775" y="5.93978" width="34.1204" height="23.6784"><div xmlns="http://www.w3.org/1999/xhtml" style="backdrop-filter:blur(0.53px);clip-path:url(#bgblur_0_0_10_clip_path);height:100%;width:100%"></div></foreignObject><g id="Vector" filter="url(#filter0_iiii_0_10)" data-figma-bg-blur-radius="1.06022">
<path d="M18 7C10.0496 7 2 9.47745 2 14.2112C2 18.945 10.0496 21.4224 18 21.4224C25.952 21.4224 34 18.945 34 14.2112C34 9.47745 25.952 7 18 7ZM10.9859 23.1412C10.4806 23.0386 10 23.4192 10 23.9348V27.1036C10 27.4729 10.2525 27.7954 10.6133 27.8741C12.175 28.215 13.8517 28.4441 15.5666 28.5553C16.0208 28.5848 16.4 28.2205 16.4 27.7654V24.5619C16.4 24.1322 16.0605 23.7803 15.6316 23.7538C14.0707 23.6573 12.5184 23.4526 10.9859 23.1412ZM20.369 23.7527C19.9399 23.779 19.6 24.131 19.6 24.5609V27.7672C19.6 28.221 19.9772 28.5849 20.4301 28.5564C22.0953 28.4513 23.7505 28.2222 25.3819 27.8707C25.7448 27.7925 26 27.4691 26 27.0978V23.934C26 23.4182 25.5189 23.0375 25.0135 23.1405C23.4815 23.4525 21.9296 23.6571 20.369 23.7527ZM29.687 21.6843C29.3944 21.819 29.2 22.108 29.2 22.4301V25.5023C29.2 26.0741 29.7832 26.4604 30.2906 26.1967C32.5555 25.0194 34 23.4248 34 21.4224V16.615C34 18.7899 32.2957 20.4837 29.687 21.6843ZM5.70931 26.1963C6.21664 26.4602 6.8 26.0739 6.8 25.5021V22.43C6.8 22.1079 6.60569 21.819 6.31311 21.6842C3.70564 20.4835 2 18.7884 2 16.615V21.4224C2 23.4233 3.44547 25.0187 5.70931 26.1963Z" fill="var(--fill-0, #FF835A)"/>
</g>
</g>
<defs>
<filter id="filter0_iiii_0_10" x="0.939775" y="5.93978" width="34.1204" height="23.6784" filterUnits="userSpaceOnUse" color-interpolation-filters="sRGB">
<feFlood flood-opacity="0" result="BackgroundImageFix"/>
<feBlend mode="normal" in="SourceGraphic" in2="BackgroundImageFix" result="shape"/>
<feColorMatrix in="SourceAlpha" type="matrix" values="0 0 0 0 0 0 0 0 0 0 0 0 0 0 0 0 0 0 127 0" result="hardAlpha"/>
<feOffset/>
<feGaussianBlur stdDeviation="0.946629"/>
<feComposite in2="hardAlpha" operator="arithmetic" k2="-1" k3="1"/>
<feColorMatrix type="matrix" values="0 0 0 0 1 0 0 0 0 1 0 0 0 0 1 0 0 0 0.15 0"/>
<feBlend mode="normal" in2="shape" result="effect1_innerShadow_0_10"/>
<feColorMatrix in="SourceAlpha" type="matrix" values="0 0 0 0 0 0 0 0 0 0 0 0 0 0 0 0 0 0 127 0" result="hardAlpha"/>
<feOffset dy="-0.757303"/>
<feGaussianBlur stdDeviation="0.946629"/>
<feComposite in2="hardAlpha" operator="arithmetic" k2="-1" k3="1"/>
<feColorMatrix type="matrix" values="0 0 0 0 1 0 0 0 0 1 0 0 0 0 1 0 0 0 0.15 0"/>
<feBlend mode="normal" in2="effect1_innerShadow_0_10" result="effect2_innerShadow_0_10"/>
<feColorMatrix in="SourceAlpha" type="matrix" values="0 0 0 0 0 0 0 0 0 0 0 0 0 0 0 0 0 0 127 0" result="hardAlpha"/>
<feOffset dy="0.757303"/>
<feGaussianBlur stdDeviation="0.946629"/>
<feComposite in2="hardAlpha" operator="arithmetic" k2="-1" k3="1"/>
<feColorMatrix type="matrix" values="0 0 0 0 1 0 0 0 0 1 0 0 0 0 1 0 0 0 0.1 0"/>
<feBlend mode="normal" in2="effect2_innerShadow_0_10" result="effect3_innerShadow_0_10"/>
<feColorMatrix in="SourceAlpha" type="matrix" values="0 0 0 0 0 0 0 0 0 0 0 0 0 0 0 0 0 0 127 0" result="hardAlpha"/>
<feOffset dy="0.681573"/>
<feGaussianBlur stdDeviation="0.946629"/>
<feComposite in2="hardAlpha" operator="arithmetic" k2="-1" k3="1"/>
<feColorMatrix type="matrix" values="0 0 0 0 1 0 0 0 0 1 0 0 0 0 1 0 0 0 0.15 0"/>
<feBlend mode="normal" in2="effect3_innerShadow_0_10" result="effect4_innerShadow_0_10"/>
</filter>
<clipPath id="bgblur_0_0_10_clip_path" transform="translate(-0.939775 -5.93978)"><path d="M18 7C10.0496 7 2 9.47745 2 14.2112C2 18.945 10.0496 21.4224 18 21.4224C25.952 21.4224 34 18.945 34 14.2112C34 9.47745 25.952 7 18 7ZM10.9859 23.1412C10.4806 23.0386 10 23.4192 10 23.9348V27.1036C10 27.4729 10.2525 27.7954 10.6133 27.8741C12.175 28.215 13.8517 28.4441 15.5666 28.5553C16.0208 28.5848 16.4 28.2205 16.4 27.7654V24.5619C16.4 24.1322 16.0605 23.7803 15.6316 23.7538C14.0707 23.6573 12.5184 23.4526 10.9859 23.1412ZM20.369 23.7527C19.9399 23.779 19.6 24.131 19.6 24.5609V27.7672C19.6 28.221 19.9772 28.5849 20.4301 28.5564C22.0953 28.4513 23.7505 28.2222 25.3819 27.8707C25.7448 27.7925 26 27.4691 26 27.0978V23.934C26 23.4182 25.5189 23.0375 25.0135 23.1405C23.4815 23.4525 21.9296 23.6571 20.369 23.7527ZM29.687 21.6843C29.3944 21.819 29.2 22.108 29.2 22.4301V25.5023C29.2 26.0741 29.7832 26.4604 30.2906 26.1967C32.5555 25.0194 34 23.4248 34 21.4224V16.615C34 18.7899 32.2957 20.4837 29.687 21.6843ZM5.70931 26.1963C6.21664 26.4602 6.8 26.0739 6.8 25.5021V22.43C6.8 22.1079 6.60569 21.819 6.31311 21.6842C3.70564 20.4835 2 18.7884 2 16.615V21.4224C2 23.4233 3.44547 25.0187 5.70931 26.1963Z"/>
</clipPath></defs>
</svg>
