<svg preserveAspectRatio="none" width="100%" height="100%" overflow="visible" style="display: block;" viewBox="0 0 36 36" fill="none" xmlns="http://www.w3.org/2000/svg">
<g id="icon/joystick">
<foreignObject x="1.46508" y="5.965" width="33.0698" height="25.5699"><div xmlns="http://www.w3.org/1999/xhtml" style="backdrop-filter:blur(0.77px);clip-path:url(#bgblur_0_0_10_clip_path);height:100%;width:100%"></div></foreignObject><g id="Vector" filter="url(#filter0_i_0_10)" data-figma-bg-blur-radius="1.53492">
<path d="M32.979 14.61C32.9756 14.5659 32.9716 14.5219 32.967 14.478C32.834 12.5868 31.9901 10.816 30.6049 9.5215C29.2197 8.22702 27.3959 7.5048 25.5 7.5H10.5C8.5775 7.49131 6.72597 8.22566 5.33205 9.5497C3.93813 10.8737 3.10961 12.6851 3.0195 14.6055C3.0045 14.724 3 14.847 3 14.985V24.75C3 26.1375 3.5595 27.492 4.533 28.464C5.52121 29.4458 6.85701 29.9978 8.25 30C10.95 30 12.006 28.5 13.5 25.5C13.719 25.062 14.988 22.5 18 22.5C20.994 22.5 22.2795 25.0605 22.5 25.5C24.006 28.5 25.05 30 27.75 30C29.1375 30 30.492 29.4405 31.464 28.467C32.4458 27.4788 32.9978 26.143 33 24.75V15C33 14.8575 32.994 14.73 32.979 14.61ZM10.5 18.0465C10.1005 18.0555 9.7032 17.9847 9.33146 17.838C8.95972 17.6914 8.62102 17.472 8.33524 17.1927C8.04946 16.9134 7.82237 16.5798 7.66729 16.2115C7.51221 15.8432 7.43228 15.4476 7.43218 15.048C7.43208 14.6484 7.51181 14.2528 7.66671 13.8844C7.8216 13.5161 8.04853 13.1823 8.33417 12.9029C8.61981 12.6234 8.9584 12.4038 9.33007 12.257C9.70174 12.1102 10.099 12.0392 10.4985 12.048C11.2823 12.0653 12.0283 12.3888 12.5766 12.9493C13.1249 13.5097 13.432 14.2625 13.4322 15.0465C13.4324 15.8306 13.1256 16.5835 12.5776 17.1442C12.0296 17.7049 11.2838 18.0288 10.5 18.0465ZM25.5 10.5465C25.8978 10.5465 26.2794 10.7045 26.5607 10.9858C26.842 11.2671 27 11.6487 27 12.0465C27 12.4443 26.842 12.8259 26.5607 13.1072C26.2794 13.3885 25.8978 13.5465 25.5 13.5465C25.1022 13.5465 24.7206 13.3885 24.4393 13.1072C24.158 12.8259 24 12.4443 24 12.0465C24 11.6487 24.158 11.2671 24.4393 10.9858C24.7206 10.7045 25.1022 10.5465 25.5 10.5465ZM22.5 16.5465C22.1022 16.5465 21.7206 16.3885 21.4393 16.1072C21.158 15.8259 21 15.4443 21 15.0465C21 14.6487 21.158 14.2671 21.4393 13.9858C21.7206 13.7045 22.1022 13.5465 22.5 13.5465C22.8978 13.5465 23.2794 13.7045 23.5607 13.9858C23.842 14.2671 24 14.6487 24 15.0465C24 15.4443 23.842 15.8259 23.5607 16.1072C23.2794 16.3885 22.8978 16.5465 22.5 16.5465ZM25.5 19.5465C25.1022 19.5465 24.7206 19.3885 24.4393 19.1072C24.158 18.8259 24 18.4443 24 18.0465C24 17.6487 24.158 17.2671 24.4393 16.9858C24.7206 16.7045 25.1022 16.5465 25.5 16.5465C25.8978 16.5465 26.2794 16.7045 26.5607 16.9858C26.842 17.2671 27 17.6487 27 18.0465C27 18.4443 26.842 18.8259 26.5607 19.1072C26.2794 19.3885 25.8978 19.5465 25.5 19.5465ZM28.5 16.5465C28.1022 16.5465 27.7206 16.3885 27.4393 16.1072C27.158 15.8259 27 15.4443 27 15.0465C27 14.6487 27.158 14.2671 27.4393 13.9858C27.7206 13.7045 28.1022 13.5465 28.5 13.5465C28.8978 13.5465 29.2794 13.7045 29.5607 13.9858C29.842 14.2671 30 14.6487 30 15.0465C30 15.4443 29.842 15.8259 29.5607 16.1072C29.2794 16.3885 28.8978 16.5465 28.5 16.5465Z" fill="var(--fill-0, #FF835A)"/>
</g>
</g>
<defs>
<filter id="filter0_i_0_10" x="1.46508" y="5.965" width="33.0698" height="25.5699" filterUnits="userSpaceOnUse" color-interpolation-filters="sRGB">
<feFlood flood-opacity="0" result="BackgroundImageFix"/>
<feBlend mode="normal" in="SourceGraphic" in2="BackgroundImageFix" result="shape"/>
<feColorMatrix in="SourceAlpha" type="matrix" values="0 0 0 0 0 0 0 0 0 0 0 0 0 0 0 0 0 0 127 0" result="hardAlpha"/>
<feOffset dy="0.986737"/>
<feGaussianBlur stdDeviation="1.37047"/>
<feComposite in2="hardAlpha" operator="arithmetic" k2="-1" k3="1"/>
<feColorMatrix type="matrix" values="0 0 0 0 1 0 0 0 0 1 0 0 0 0 1 0 0 0 0.6 0"/>
<feBlend mode="normal" in2="shape" result="effect1_innerShadow_0_10"/>
</filter>
<clipPath id="bgblur_0_0_10_clip_path" transform="translate(-1.46508 -5.965)"><path d="M32.979 14.61C32.9756 14.5659 32.9716 14.5219 32.967 14.478C32.834 12.5868 31.9901 10.816 30.6049 9.5215C29.2197 8.22702 27.3959 7.5048 25.5 7.5H10.5C8.5775 7.49131 6.72597 8.22566 5.33205 9.5497C3.93813 10.8737 3.10961 12.6851 3.0195 14.6055C3.0045 14.724 3 14.847 3 14.985V24.75C3 26.1375 3.5595 27.492 4.533 28.464C5.52121 29.4458 6.85701 29.9978 8.25 30C10.95 30 12.006 28.5 13.5 25.5C13.719 25.062 14.988 22.5 18 22.5C20.994 22.5 22.2795 25.0605 22.5 25.5C24.006 28.5 25.05 30 27.75 30C29.1375 30 30.492 29.4405 31.464 28.467C32.4458 27.4788 32.9978 26.143 33 24.75V15C33 14.8575 32.994 14.73 32.979 14.61ZM10.5 18.0465C10.1005 18.0555 9.7032 17.9847 9.33146 17.838C8.95972 17.6914 8.62102 17.472 8.33524 17.1927C8.04946 16.9134 7.82237 16.5798 7.66729 16.2115C7.51221 15.8432 7.43228 15.4476 7.43218 15.048C7.43208 14.6484 7.51181 14.2528 7.66671 13.8844C7.8216 13.5161 8.04853 13.1823 8.33417 12.9029C8.61981 12.6234 8.9584 12.4038 9.33007 12.257C9.70174 12.1102 10.099 12.0392 10.4985 12.048C11.2823 12.0653 12.0283 12.3888 12.5766 12.9493C13.1249 13.5097 13.432 14.2625 13.4322 15.0465C13.4324 15.8306 13.1256 16.5835 12.5776 17.1442C12.0296 17.7049 11.2838 18.0288 10.5 18.0465ZM25.5 10.5465C25.8978 10.5465 26.2794 10.7045 26.5607 10.9858C26.842 11.2671 27 11.6487 27 12.0465C27 12.4443 26.842 12.8259 26.5607 13.1072C26.2794 13.3885 25.8978 13.5465 25.5 13.5465C25.1022 13.5465 24.7206 13.3885 24.4393 13.1072C24.158 12.8259 24 12.4443 24 12.0465C24 11.6487 24.158 11.2671 24.4393 10.9858C24.7206 10.7045 25.1022 10.5465 25.5 10.5465ZM22.5 16.5465C22.1022 16.5465 21.7206 16.3885 21.4393 16.1072C21.158 15.8259 21 15.4443 21 15.0465C21 14.6487 21.158 14.2671 21.4393 13.9858C21.7206 13.7045 22.1022 13.5465 22.5 13.5465C22.8978 13.5465 23.2794 13.7045 23.5607 13.9858C23.842 14.2671 24 14.6487 24 15.0465C24 15.4443 23.842 15.8259 23.5607 16.1072C23.2794 16.3885 22.8978 16.5465 22.5 16.5465ZM25.5 19.5465C25.1022 19.5465 24.7206 19.3885 24.4393 19.1072C24.158 18.8259 24 18.4443 24 18.0465C24 17.6487 24.158 17.2671 24.4393 16.9858C24.7206 16.7045 25.1022 16.5465 25.5 16.5465C25.8978 16.5465 26.2794 16.7045 26.5607 16.9858C26.842 17.2671 27 17.6487 27 18.0465C27 18.4443 26.842 18.8259 26.5607 19.1072C26.2794 19.3885 25.8978 19.5465 25.5 19.5465ZM28.5 16.5465C28.1022 16.5465 27.7206 16.3885 27.4393 16.1072C27.158 15.8259 27 15.4443 27 15.0465C27 14.6487 27.158 14.2671 27.4393 13.9858C27.7206 13.7045 28.1022 13.5465 28.5 13.5465C28.8978 13.5465 29.2794 13.7045 29.5607 13.9858C29.842 14.2671 30 14.6487 30 15.0465C30 15.4443 29.842 15.8259 29.5607 16.1072C29.2794 16.3885 28.8978 16.5465 28.5 16.5465Z"/>
</clipPath></defs>
</svg>
